<svg width="24" height="23" fill="#787D85" version="1.1" viewBox="0 0 24 23" xmlns="http://www.w3.org/2000/svg">
 <path d="m5.0594 4.5294h-0.00168c-0.18916 0-0.36707 0.06912-0.50142 0.19474-0.13582 0.12701-0.21064 0.29613-0.21064 0.47616v10.06c0 0.3689 0.32142 0.6698 0.71657 0.6707 1.6659 0.0038 4.4568 0.3292 6.3823 2.218v-10.528c0-0.12505-0.0341-0.24253-0.0984-0.33975-1.5803-2.3857-4.6171-2.7481-6.2867-2.7518z"/>
 <path d="m19.654 15.26v-10.06c0-0.18003-0.0748-0.34915-0.2106-0.47616-0.1344-0.12562-0.3124-0.19475-0.5014-0.19475h-0.0017c-1.6696 0.00373-4.7064 0.3662-6.2867 2.7519-0.0643 0.09722-0.0983 0.2147-0.0983 0.33975v10.528c1.9254-1.8888 4.7163-2.2143 6.3822-2.218 0.3951-1e-3 0.7165-0.3019 0.7165-0.6707z"/>
 <path d="m21.284 6.8494h-0.519v8.411c0 0.9419-0.8186 1.71-1.825 1.7123-1.413 0.0031-3.7428 0.2622-5.3928 1.7261 2.8537-0.655 5.8621-0.2292 7.5766 0.1371 0.214 0.0457 0.4352-0.0016 0.6068-0.1297 0.1709-0.1278 0.2689-0.3189 0.2689-0.524v-10.662c1e-4 -0.36985-0.321-0.67078-0.7155-0.67078z"/>
 <path d="m3.2345 15.26v-8.411h-0.51892c-0.39448 0-0.71556 0.30093-0.71556 0.67078v10.662c0 0.2052 0.09805 0.3962 0.26896 0.524 0.17138 0.1281 0.39239 0.1755 0.6068 0.1297 1.7145-0.3663 4.7229-0.7921 7.5765-0.1371-1.65-1.4639-3.9798-1.7228-5.3928-1.726-1.0063-0.0022-1.825-0.7703-1.825-1.7122z"/>
</svg>
