<svg width="24" height="24" fill="#787D85" version="1.1" viewBox="0 0 24 24" xmlns="http://www.w3.org/2000/svg">
 <path d="m12 14.892-6.3281-2.541v1.8358c0 2.0043 2.7205 3.5156 6.3281 3.5156 3.6076 0 6.3281-1.5113 6.3281-3.5156v-1.8358z"/>
 <path d="m24 18.406c0-0.9154-0.5896-1.6886-1.4062-1.9798v-7.2841l1.4062-0.5798-12-4.8147-12 4.8147 12 4.8148 9.1875-3.6704v6.7195c-0.8167 0.2912-1.4063 1.0644-1.4063 1.9798 0 0.8382 0.495 1.5576 1.2048 1.8976l-1.1683 3.505 1.3334 0.4449 0.7395-2.2185 0.7395 2.2185 1.3335-0.4449-1.1683-3.505c0.7097-0.3399 1.2047-1.0594 1.2047-1.8976z"/>
</svg>
