<svg width="24" height="23" fill="#787D85" version="1.1" viewBox="0 0 24 23" xmlns="http://www.w3.org/2000/svg">
 <path d="m15.09 4.4605-8.1683 3.9203-3.2468-1.4975 8.0242-3.7143c0.18-0.08578 0.396-0.08578 0.585 0z"/>
 <path d="m20.316 6.8833-8.3115 3.8599-3.1125-1.4378-0.45-0.21444 8.1773-3.9196 0.45 0.21373z"/>
 <path d="m11.338 11.855-9e-3 8.1226-7.9605-3.8943c-0.225-0.1111-0.369-0.334-0.369-0.5737v-7.5144l3.3735 1.558v2.7391c0 0.3509 0.306 0.642 0.675 0.642s0.675-0.2911 0.675-0.642v-2.1056l0.45 0.20535z"/>
 <path d="m20.991 8.004-8.3025 3.843-9e-3 8.1225 8.3205-4.0728z"/>
</svg>
