<svg width="24" height="24" fill="#787D85" version="1.1" viewBox="0 0 24 24" xmlns="http://www.w3.org/2000/svg">
 <path d="m19.654 11.067c0.0549-0.29094 0.0826-0.5877 0.0826-0.88656 0-2.6882-2.2472-4.875-5.0097-4.875-1.7635 0-3.398 0.91408-4.296 2.3666-1.2123-0.38241-2.456-0.21843-3.4807 0.46869-1.0247 0.68658-1.6362 1.7736-1.6857 2.9622-1.347 0.62259-2.2642 1.9482-2.2642 3.4108 0 0.2539 0.0632 0.5015 0.11155 0.7416l5.6e-4 6e-4c0.35988 1.7673 1.9673 3.0495 3.8215 3.0495h11.133c2.1483 0 3.9336-1.7012 3.9336-3.7917 0-1.4784-0.9297-2.8093-2.3463-3.4467z"/>
</svg>
